<svg width="1440" height="900" viewBox="0 0 1440 900" fill="none" xmlns="http://www.w3.org/2000/svg">
<g id="background">
<rect id="sky" width="1440" height="900" fill="url(#paint0_linear)"/>
<rect id="ocean" y="400" width="1440" height="500" fill="#46B3DE"/>
<g id="iceberg">
<path id="ice" d="M729.5 460.809C725.1 468.809 719 482.809 724.5 484.309C730 485.809 758.833 480.143 772 479.809H1036.5C1087.17 479.976 1190.1 480.209 1196.5 479.809C1202.9 479.409 1200 474.809 1210 474.309C1220 473.809 1234 476.809 1235 472.809C1236 468.809 1203 439.809 1203 439.809C1181 414.809 1156 358.809 1146 340.809L1145.88 340.595C1135.92 322.659 1125.44 303.801 1110.5 301.809C1098.5 300.209 1087.17 314.143 1083 321.309L1068 340.809C1050.8 335.209 1034 329.309 1023 321.309C1012 313.309 972.5 284.309 963 280.309C953.5 276.309 952 278.309 929.5 280.309C907 282.309 898 287.809 882 298.809C869.2 307.609 846.667 334.809 837 347.309C833.8 351.309 824.5 360.809 814.5 368.309C804.5 375.809 791 387.809 787 397.309C783 406.809 785.6 405.209 772 416.809C755 431.309 735 450.809 729.5 460.809Z" fill="#F6F8F7"/>
<path id="shade" d="M938.297 279.431C938.007 283.813 938.168 287.978 939.5 289.309C942.5 292.309 954 300.809 967 309.309C977.4 316.109 987.333 323.143 991 325.809C993.5 327.809 998.5 333.109 998.5 338.309C998.5 342.712 996.665 361.105 995.17 376.091L995.17 376.091C994.458 383.231 993.823 389.598 993.5 393.309C992.5 404.809 995.5 425.809 996.5 431.309C996.75 432.684 997.031 434.466 997.336 436.395C998.25 442.184 999.375 449.309 1000.5 450.809C1002 452.809 1002.5 452.809 1004 451.809C1005.2 451.009 1004.5 441.476 1004 436.809C1003.83 432.309 1004.6 421.109 1009 412.309C1014.5 401.309 1025.5 382.809 1038 372.309C1050.5 361.809 1059 351.809 1068 340.809C1050.8 335.209 1034 329.309 1023 321.309C1022.24 320.76 1021.36 320.112 1020.35 319.379L1020.35 319.378L1020.35 319.378C1006.71 309.443 971.847 284.035 963 280.309C955.995 277.36 953.34 277.673 943.409 278.842L943.409 278.842C941.889 279.021 940.199 279.22 938.297 279.431Z" fill="#DAE8F5"/>
</g>
</g>
<defs>
<linearGradient id="paint0_linear" x1="720" y1="0" x2="720" y2="900" gradientUnits="userSpaceOnUse">
<stop stop-color="#8FC3EB"/>
<stop offset="0.372768" stop-color="#D2E7F8"/>
</linearGradient>
</defs>
</svg>
