<svg id="penguin" width="300" height="400" viewBox="0 0 300 400" fill="none" xmlns="http://www.w3.org/2000/svg">
<defs>
    <mask id="mask0" mask-type="alpha" maskUnits="userSpaceOnUse" x="143" y="185" width="15" height="32">
        <path id="lower beak mask" d="M157.39 185.284H143.923V216.705H157.39V185.284Z" fill="#C4C4C4"/>
    </mask>
    <clipPath id="mask1">
        <path d="M109.468 208.476C83.6042 208.476 81.3055 170.959 81.1012 143.004C81.0639 137.896 82.7168 132.724 87.2116 130.295C91.2845 128.094 97.2056 126.183 105.015 126.183C122.27 126.183 137.298 144.657 137.298 157.533C137.298 163.446 136.198 170.625 134.944 176.763C133.589 183.398 136.013 190.374 141.558 194.261C147.02 198.09 154.294 198.09 159.754 194.261C165.3 190.374 167.724 183.398 166.368 176.763C165.115 170.625 164.015 163.446 164.015 157.533C164.015 144.657 179.043 126.183 196.297 126.183C204.107 126.183 210.029 128.094 214.102 130.295C218.596 132.724 220.249 137.896 220.212 143.004C220.008 170.959 217.709 208.476 191.845 208.476H150.656H109.468Z" fill="#FEFEFE"/>
    </clipPath>
    <path id="left-foot" d="M186.941 300.749H168.986C163.408 300.749 158.886 305.271 158.886 310.849C158.886 316.427 163.408 320.948 168.986 320.948H186.941C192.519 320.948 197.04 316.427 197.04 310.849C197.04 305.271 192.519 300.749 186.941 300.749Z" fill="#F48F00"/>
    <path id="right-foot" d="M132.328 300.749H114.373C108.795 300.749 104.273 305.271 104.273 310.849C104.273 316.427 108.795 320.948 114.373 320.948H132.328C137.905 320.948 142.427 316.427 142.427 310.849C142.427 305.271 137.905 300.749 132.328 300.749Z" fill="#F48F00"/>
</defs>

<use id="left-foot-back" href="#left-foot"/>
<use id="right-foot-back" href="#right-foot"/>

<g id="body">
    <path id="body-fill" d="M68.3633 159.827C68.3633 115.216 104.528 79.0514 149.139 79.0514H152.175C196.786 79.0514 232.949 115.216 232.949 159.827V219.698C232.949 265.147 196.106 301.992 150.656 301.992C105.207 301.992 68.3633 265.147 68.3633 219.698V159.827Z" fill="#30323F"/>
    <path id="belly" d="M110.258 243.913C110.258 237.563 115.405 232.417 121.754 232.417H179.559C185.908 232.417 191.055 237.563 191.055 243.913C191.055 265.246 173.761 282.54 152.427 282.54H148.886C127.552 282.54 110.258 265.246 110.258 243.913Z" fill="#FEFEFE"/>
    <path id="right-wing" d="M94.6262 237.053C99.2731 228.457 105.159 199.133 88.6148 180.236C84.7942 175.872 78.111 177.546 75.3528 182.649L37.4146 252.832C34.6564 257.934 36.9241 264.447 42.6802 265.162C67.7751 268.279 89.9779 245.652 94.6262 237.053Z" fill="#30323F"/>
    <path id="left-wing" d="M206.212 237.053C201.565 228.457 195.678 199.133 212.222 180.236C216.043 175.872 222.727 177.546 225.485 182.649L263.423 252.832C266.181 257.934 263.914 264.447 258.158 265.162C233.062 268.279 210.86 245.652 206.212 237.053Z" fill="#30323F"/>

    <g id="face">
        <path id="pattern" d="M109.468 208.476C83.6042 208.476 81.3055 170.959 81.1012 143.004C81.0639 137.896 82.7168 132.724 87.2116 130.295C91.2845 128.094 97.2056 126.183 105.015 126.183C122.27 126.183 137.298 144.657 137.298 157.533C137.298 163.446 136.198 170.625 134.944 176.763C133.589 183.398 136.013 190.374 141.558 194.261C147.02 198.09 154.294 198.09 159.754 194.261C165.3 190.374 167.724 183.398 166.368 176.763C165.115 170.625 164.015 163.446 164.015 157.533C164.015 144.657 179.043 126.183 196.297 126.183C204.107 126.183 210.029 128.094 214.102 130.295C218.596 132.724 220.249 137.896 220.212 143.004C220.008 170.959 217.709 208.476 191.845 208.476H150.656H109.468Z" fill="#FEFEFE"/>
        <g class="eyes" clip-path="url(#mask1)">
            <g class="eye">
                <path id="left-eye-pupil" d="M203.721 154.743C203.721 148.958 199.032 144.269 193.247 144.269C187.463 144.269 182.774 148.958 182.774 154.743V168.209C182.774 173.993 187.463 178.682 193.247 178.682C199.032 178.682 203.721 173.993 203.721 168.209V154.743Z" fill="#4B4B4B"/>
                <path id="left-eye-shine" d="M186.256 157.604C189.975 157.604 192.989 154.59 192.989 150.871C192.989 147.153 189.975 144.138 186.256 144.138C182.538 144.138 179.523 147.153 179.523 150.871C179.523 154.59 182.538 157.604 186.256 157.604Z" fill="#FEFEFE"/>
                <path id="left-eye-shine-sm" d="M200.336 171.542C203.283 171.542 205.672 169.153 205.672 166.206C205.672 163.259 203.283 160.87 200.336 160.87C197.389 160.87 195 163.259 195 166.206C195 169.153 197.389 171.542 200.336 171.542Z" fill="#FEFEFE"/>
                <path id="left-eye-lid-lower" d="M203.722 179.842H182.775V186.588C182.775 192.373 187.464 197.062 193.249 197.062C199.033 197.062 203.722 192.373 203.722 186.588V179.842Z" fill="white" stroke="white" stroke-width="1.18577"/>
                <path id="left-eye-lid-upper" d="M203.722 143.676H182.775V136.956C182.775 131.172 187.464 126.482 193.249 126.482C199.033 126.482 203.722 131.172 203.722 136.956V143.676Z" fill="white" stroke="white" stroke-width="1.18577"/>
                <path id="left-eye-tear" d="M181 171.542C181.593 174.308 186.217 178.656 192.858 178.656C199.498 178.656 205.11 174.308 205.901 171.542" stroke="#6CACF8" stroke-opacity="0.5" stroke-width="11.8577" stroke-linecap="round"/>
            </g>
            <g class="eye">
                <path id="right-eye-pupil" d="M122.924 154.743C122.924 148.958 118.234 144.269 112.45 144.269C106.666 144.269 101.976 148.958 101.976 154.743V168.209C101.976 173.993 106.666 178.682 112.45 178.682C118.234 178.682 122.924 173.993 122.924 168.209V154.743Z" fill="#4B4B4B"/>
                <path id="right-eye-shine" d="M104.711 157.604C108.429 157.604 111.444 154.59 111.444 150.871C111.444 147.153 108.429 144.138 104.711 144.138C100.992 144.138 97.9777 147.153 97.9777 150.871C97.9777 154.59 100.992 157.604 104.711 157.604Z" fill="#FEFEFE"/>
                <path id="right-eye-shine-sm" d="M119.336 171.542C122.283 171.542 124.672 169.153 124.672 166.206C124.672 163.259 122.283 160.87 119.336 160.87C116.389 160.87 114 163.259 114 166.206C114 169.153 116.389 171.542 119.336 171.542Z" fill="#FEFEFE"/>
                <path id="right-eye-lid-lower" d="M122.924 179.842H101.976V186.588C101.976 192.373 106.666 197.062 112.45 197.062C118.234 197.062 122.924 192.373 122.924 186.588V179.842Z" fill="white" stroke="white" stroke-width="1.18577"/>
                <path id="right-eye-lid-upper" d="M122.924 143.676H101.976V136.956C101.976 131.172 106.666 126.482 112.45 126.482C118.234 126.482 122.924 131.172 122.924 136.956V143.676Z" fill="white" stroke="white" stroke-width="1.18577"/>
                <path id="right-eye-tear" d="M100 171.542C100.593 174.308 105.217 178.656 111.858 178.656C118.498 178.656 124.111 174.308 124.901 171.542" stroke="#6CACF8" stroke-opacity="0.5" stroke-width="11.8577" stroke-linecap="round"/>
            </g>
        </g>
        <g id="beak">
            <path id="upper-beak" d="M157.69 185.285H143.623C142.641 185.285 141.936 184.362 142.248 183.431C143.429 179.902 146.395 172.567 150.657 172.567C154.918 172.567 157.884 179.902 159.065 183.431C159.377 184.362 158.672 185.285 157.69 185.285Z" fill="#FFC200"/>
            <g id="lower-beak" mask="url(#mask0)">
                <g id="lower-beak-openable">
                    <path id="lower-beak-outer" d="M150.656 154.612H150.656C146.938 154.612 143.923 157.626 143.923 161.345V183.04C143.923 186.759 146.938 189.773 150.656 189.773H150.656C154.375 189.773 157.39 186.759 157.39 183.04V161.345C157.39 157.626 154.375 154.612 150.656 154.612Z" fill="#F48F00"/>
                    <path id="lower-beak-inner" d="M145.42 167.79C145.42 164.23 147.764 161.345 150.657 161.345C153.549 161.345 155.893 164.23 155.893 167.79V178.839C155.893 182.399 153.549 185.284 150.657 185.284C147.764 185.284 145.42 182.399 145.42 178.839V167.79Z" fill="#C87700"/>
                </g>
            </g>
        </g>
    </g>
</g>

<use id="left-foot-front" href="#left-foot"/>
<use id="right-foot-front" href="#right-foot"/>

</svg>
